<?xml version="1.0" encoding="utf-8"?>
<!-- Generator: Adobe Illustrator 22.0.1, SVG Export Plug-In . SVG Version: 6.00 Build 0)  -->
<svg version="1.1" baseProfile="tiny" id="Capa_1" xmlns="http://www.w3.org/2000/svg" xmlns:xlink="http://www.w3.org/1999/xlink"
	 x="0px" y="0px" viewBox="0 0 134 134" xml:space="preserve">
<circle fill="none" stroke="#02B875" stroke-miterlimit="10" cx="66.7" cy="66.7" r="66.7"/>
<g>
	<path fill="#02B875" d="M108.2,95.6l-5.8-5.8c1.1-0.1,2-0.9,2.4-1.9c0.3-0.7,0.2-1.5-0.1-2.2c-0.3-0.7-0.9-1.2-1.6-1.5l-10.3-3.7
		c-0.3-0.1-0.6-0.2-1-0.2c-0.8,0-1.5,0.3-2,0.8c-0.8,0.8-1.1,2-0.7,3l3.5,9.9c0.4,1.1,1.5,1.9,2.7,1.9c0.3,0,0.7-0.1,1-0.2
		c1-0.4,1.7-1.2,1.9-2.2l6,6c0.5,0.5,1.3,0.8,2,0.8s1.5-0.3,2-0.8c0.5-0.5,0.8-1.3,0.8-2C109,96.9,108.7,96.1,108.2,95.6z"/>
	<polygon fill="#02B875" points="54.5,55.9 57.1,55.9 55.8,52.5 	"/>
	<path fill="#02B875" d="M72.5,50.2h-3.9v11h3.9c3.1,0,5.7-2.5,5.7-5.5C78.2,52.6,75.7,50.2,72.5,50.2z"/>
	<path fill="#02B875" d="M103.1,71.8V39.6c0-2.3-1.9-4.1-4.1-4.1H29.1c-2.3,0-4.1,1.9-4.1,4.1v32.2c0,2.3,1.9,4.1,4.1,4.1H99
		C101.2,75.9,103.1,74.1,103.1,71.8z M62.6,64.7C62.6,64.7,62.6,64.7,62.6,64.7h-1.5c-0.4,0-0.8-0.3-0.9-0.7l-1.8-4.7h-5.1L51.5,64
		c-0.1,0.4-0.5,0.7-0.9,0.7H49c-0.3,0-0.6-0.2-0.8-0.4C48,64,48,63.7,48.1,63.3L54,47.4c0.1-0.4,0.5-0.7,0.9-0.7l1.7,0h0
		c0.4,0,0.8,0.3,0.9,0.7l6,15.8c0.1,0.1,0.1,0.3,0.1,0.5C63.7,64.3,63.2,64.7,62.6,64.7z M72.5,64.6h-6.4c-0.6,0-1-0.5-1-1V47.7
		c0-0.6,0.5-1,1-1h6.4c5,0,9.1,4,9.1,9C81.7,60.6,77.6,64.6,72.5,64.6z"/>
</g>
</svg>
