<?xml version="1.0" encoding="utf-8"?>
<!-- Generator: Adobe Illustrator 22.0.1, SVG Export Plug-In . SVG Version: 6.00 Build 0)  -->
<svg version="1.1" baseProfile="tiny" id="Capa_1" xmlns="http://www.w3.org/2000/svg" xmlns:xlink="http://www.w3.org/1999/xlink"
	 x="0px" y="0px" viewBox="0 0 134 134" xml:space="preserve">
<circle fill="none" stroke="#02B875" stroke-miterlimit="10" cx="66.7" cy="66.7" r="66.7"/>
<g>
	<path fill="#02B875" d="M94.8,66.6v-0.3c3.8-2.7,6-5.9,6-9.5V46.6c0-8.9-13.9-15.6-32.4-15.6S36,37.7,36,46.6v2.7
		c-3.9,2.6-6,5.8-6,9.3v10.1c0,4,2.7,7.5,7.2,10.3v7.7c0,9.1,14.2,16.3,32.4,16.3S102,95.9,102,86.7V76.6
		C102,72.8,99.5,69.3,94.8,66.6z M99.6,76.6c0,7.7-14,14.4-30,14.4c-0.7,0-1.4,0-2.1,0c-0.2,0-0.4,0-0.6,0c-0.6,0-1.2-0.1-1.8-0.1
		c-0.4,0-0.8-0.1-1.1-0.1c-0.2,0-0.3,0-0.5-0.1c-9.9-1.1-18.3-4.6-21.9-9.1c0-0.1-0.1-0.1-0.1-0.2c-0.1-0.1-0.1-0.1-0.2-0.2
		c1.7,0.7,3.5,1.4,5.5,1.9c5.3,3.5,13.6,5.5,22.8,5.5c16.3,0,27.6-6.3,27.6-12c0-1.7-1-3.3-2.9-4.8c0-0.1,0.1-0.2,0.1-0.3
		c0-0.1,0.1-0.2,0.1-0.4c0-0.1,0.1-0.3,0.1-0.4c0-0.1,0.1-0.3,0.1-0.4c0-0.1,0-0.3,0.1-0.4c0-0.1,0-0.3,0-0.4c0,0,0-0.1,0-0.1
		C97.3,71.1,99.6,73.5,99.6,76.6z M74.6,93.2c0,0,0.1,0,0.1,0c0.7-0.1,1.4-0.1,2-0.2c0.2,0,0.3,0,0.5-0.1c0.7-0.1,1.3-0.2,2-0.3v7.2
		c-1.6,0.3-3.2,0.4-4.8,0.6v-7.2C74.5,93.2,74.5,93.2,74.6,93.2z M81.6,92.2c0.1,0,0.1,0,0.2,0c0.6-0.1,1.3-0.3,1.9-0.4
		c0.1,0,0.2,0,0.2-0.1c0.4-0.1,0.8-0.2,1.2-0.3v7.2c-1.2,0.3-2.4,0.6-3.6,0.9L81.6,92.2L81.6,92.2z M87.6,90.6c0.1,0,0.1,0,0.2-0.1
		c0.1,0,0.2-0.1,0.3-0.1c0.5-0.2,1-0.4,1.5-0.6c0.1-0.1,0.3-0.1,0.4-0.2c0,0,0.1,0,0.1,0v7.2c-0.8,0.3-1.6,0.6-2.4,0.9L87.6,90.6
		L87.6,90.6z M92.4,88.5c0.2-0.1,0.4-0.2,0.6-0.3c0.1-0.1,0.2-0.1,0.3-0.2c0.5-0.3,0.9-0.5,1.3-0.8c0,0,0.1,0,0.1-0.1v7
		c-0.7,0.5-1.5,1-2.4,1.5L92.4,88.5L92.4,88.5z M44.4,87.1c0.7,0.5,1.6,0.9,2.4,1.4v7.1c-0.9-0.5-1.7-1-2.4-1.5V87.1z M38.4,52.9
		C38.4,53,38.4,53,38.4,52.9c0.3,0.4,0.6,0.7,0.9,1.1c0.1,0.1,0.1,0.1,0.2,0.2c0.3,0.3,0.6,0.5,0.9,0.8c0.1,0.1,0.1,0.1,0.2,0.2
		c0.1,0.1,0.1,0.1,0.2,0.2v6.7c-1.5-1.7-2.4-3.5-2.4-5.3V52.9z M44.6,58c0.1,0.1,0.2,0.1,0.3,0.2c0.2,0.1,0.4,0.2,0.6,0.3v7.1
		c-0.9-0.5-1.7-1-2.4-1.5v-7c0,0,0.1,0,0.1,0.1C43.7,57.5,44.2,57.8,44.6,58z M48.5,59.8c0.5,0.2,1,0.4,1.5,0.6
		c0.1,0,0.2,0.1,0.3,0.1c0.1,0,0.1,0,0.2,0.1v7.2c-0.8-0.3-1.6-0.6-2.4-0.9v-7.2c0,0,0.1,0,0.1,0C48.2,59.7,48.3,59.8,48.5,59.8z
		 M54.3,61.7c0.6,0.2,1.3,0.3,1.9,0.4c0.1,0,0.1,0,0.2,0v7.2c-1.2-0.3-2.4-0.6-3.6-0.9v-7.2c0.4,0.1,0.8,0.2,1.2,0.3
		C54.1,61.7,54.2,61.7,54.3,61.7z M61.3,63c0.7,0.1,1.4,0.1,2,0.2c0,0,0.1,0,0.1,0c0.1,0,0.1,0,0.2,0v7.2c-1.6-0.1-3.2-0.3-4.8-0.6
		v-7.2c0.6,0.1,1.3,0.2,2,0.3C60.9,62.9,61.1,63,61.3,63z M68.4,63.4c0.8,0,1.5,0,2.2,0c0.1,0,0.1,0,0.2,0v7.2
		c-0.8,0-1.6,0.1-2.4,0.1c-0.8,0-1.6,0-2.4-0.1v-7.2c0.1,0,0.1,0,0.2,0C66.9,63.4,67.6,63.4,68.4,63.4z M73.5,63.2
		c0.7-0.1,1.4-0.1,2-0.2c0.2,0,0.3,0,0.5-0.1c0.7-0.1,1.3-0.2,2-0.3v7.2c-0.5,0.1-0.9,0.2-1.4,0.2c-0.2,0-0.5,0.1-0.7,0.1
		c-0.9,0.1-1.8,0.2-2.7,0.3v-7.2c0.1,0,0.1,0,0.2,0C73.4,63.2,73.4,63.2,73.5,63.2z M82.5,61.7c0.1,0,0.2,0,0.2-0.1
		c0.4-0.1,0.8-0.2,1.2-0.3v7.2c-0.2,0-0.3,0.1-0.5,0.1c0,0,0,0,0,0c-0.3,0.1-0.5,0.1-0.8,0.2c-0.7,0.2-1.3,0.3-2,0.5
		c-0.1,0-0.2,0-0.3,0.1v-7.2c0.1,0,0.1,0,0.2,0C81.2,62,81.9,61.9,82.5,61.7z M86.9,60.4c0.5-0.2,1-0.4,1.5-0.6
		c0.1-0.1,0.3-0.1,0.4-0.2c0,0,0.1,0,0.1,0v7.2c-0.8,0.3-1.6,0.6-2.4,0.9v-7.2c0.1,0,0.1,0,0.2-0.1C86.7,60.5,86.8,60.4,86.9,60.4z
		 M92.2,58c0.5-0.3,0.9-0.5,1.3-0.8c0,0,0.1,0,0.1-0.1v7c-0.7,0.5-1.5,1-2.4,1.5v-7.1c0.2-0.1,0.4-0.2,0.6-0.3
		C91.9,58.1,92,58.1,92.2,58z M42.1,71.7c0.1,0.1,0.3,0.1,0.4,0.2c0.5,0.2,1,0.4,1.5,0.6c0.1,0,0.2,0.1,0.3,0.1c0.1,0,0.1,0,0.2,0.1
		v7.2c-0.8-0.3-1.6-0.6-2.4-0.9L42.1,71.7C42,71.7,42.1,71.7,42.1,71.7z M48.3,73.7c0.6,0.2,1.3,0.3,1.9,0.4c0.1,0,0.1,0,0.2,0v7.2
		c-0.1,0-0.1,0-0.2,0c-0.6-0.1-1.3-0.3-1.9-0.4c-0.5-0.1-1-0.3-1.5-0.4v-7.2c0.4,0.1,0.8,0.2,1.2,0.3C48.1,73.7,48.2,73.7,48.3,73.7
		z M55.3,75c0.7,0.1,1.4,0.1,2,0.2c0,0,0.1,0,0.1,0c0.1,0,0.1,0,0.2,0v7.2c-0.8-0.1-1.6-0.1-2.5-0.2c-0.4,0-0.8-0.1-1.2-0.2
		c-0.4-0.1-0.8-0.1-1.2-0.2v-7.2c0.6,0.1,1.3,0.2,2,0.3C54.9,74.9,55.1,75,55.3,75z M62.4,75.4c0.8,0,1.6,0,2.4-0.1v7.2
		c0,0-0.1,0-0.1,0c-0.8,0-1.5,0-2.3,0c-0.8,0-1.6,0-2.4-0.1v-7.2c0.1,0,0.1,0,0.2,0C60.9,75.4,61.6,75.4,62.4,75.4z M70.6,82
		c-0.3,0-0.6,0.1-0.8,0.1c-0.6,0.1-1.2,0.1-1.9,0.2c-0.2,0-0.4,0-0.6,0.1c0,0,0,0-0.1,0v-7.2c0.4,0,0.8,0,1.2-0.1
		c0.4,0,0.8-0.1,1.2-0.1c0.6-0.1,1.2-0.1,1.7-0.2c0.2,0,0.5-0.1,0.7-0.1v7.2c-0.1,0-0.2,0-0.3,0C71.3,81.9,71,82,70.6,82z M75.3,74
		c0.5-0.1,1-0.2,1.5-0.4c0.4-0.1,0.8-0.2,1.2-0.3v7.2c-1.2,0.3-2.4,0.6-3.6,0.9v-7.2C74.7,74.1,75,74,75.3,74z M80.4,72.5
		c0.1,0,0.2-0.1,0.2-0.1c0.4-0.2,0.9-0.3,1.3-0.5c0.3-0.1,0.6-0.2,0.9-0.4v7.2c-0.8,0.3-1.6,0.6-2.4,0.9L80.4,72.5L80.4,72.5z
		 M85.2,77.6v-6.9c0.8-0.2,1.6-0.5,2.4-0.8v6.2C86.9,76.7,86.1,77.2,85.2,77.6z M92.4,68.7c0,0.9-0.2,1.8-0.6,2.7l-0.1,0.2
		c-0.4,0.7-0.9,1.5-1.4,2.1c-0.1,0.1-0.1,0.2-0.2,0.2c0,0,0,0,0,0v-5.1c0.8-0.4,1.6-0.8,2.4-1.2V68.7z M37.2,69.1c0,0,0.1,0,0.1,0.1
		c0.4,0.3,0.9,0.5,1.3,0.8c0.1,0.1,0.2,0.1,0.3,0.2c0.2,0.1,0.4,0.2,0.6,0.3v6.1h-1.7c-0.2-0.2-0.5-0.3-0.7-0.5V69.1z M49.2,89.6
		c0.8,0.3,1.6,0.6,2.4,0.9v7.2c-0.8-0.3-1.6-0.6-2.4-0.9V89.6z M54,91.3c1.2,0.3,2.4,0.6,3.6,0.9v7.2c-1.2-0.3-2.4-0.6-3.6-0.9V91.3
		z M60,92.6c0.2,0,0.4,0.1,0.6,0.1c0.3,0,0.6,0.1,0.9,0.1c0.5,0.1,0.9,0.1,1.4,0.2c0.5,0.1,0.9,0.1,1.4,0.1c0.2,0,0.4,0,0.6,0.1v7.2
		c-1.6-0.1-3.2-0.3-4.8-0.6V92.6z M98.4,52.9v3.8c0,1.9-0.9,3.7-2.4,5.3v-6.7c0.1-0.1,0.1-0.1,0.2-0.2c0.1-0.1,0.1-0.1,0.2-0.2
		c0.3-0.3,0.6-0.5,0.9-0.8c0.1-0.1,0.1-0.1,0.2-0.2C97.8,53.7,98.1,53.4,98.4,52.9C98.4,53,98.4,53,98.4,52.9z M68.4,33.4
		c16.8,0,30,5.8,30,13.2c0,7.7-14,14.4-30,14.4s-30-6.7-30-14.4C38.4,39.2,51.6,33.4,68.4,33.4z M32.4,68.7v-3.8c0,0,0,0,0.1,0.1
		c0.3,0.3,0.6,0.7,0.9,1c0.1,0.1,0.1,0.1,0.2,0.2c0.3,0.3,0.6,0.5,0.9,0.8c0.1,0.1,0.1,0.1,0.2,0.2c0.1,0.1,0.1,0.1,0.2,0.2v6.7
		C33.3,72.4,32.4,70.6,32.4,68.7z M39.6,86.7v-3.8c0.7,0.8,1.5,1.7,2.4,2.4v6.7C40.5,90.4,39.6,88.6,39.6,86.7z M67.2,100.5v-7.2
		c0.1,0,0.1,0,0.2,0c0.7,0,1.5,0,2.2,0c0.8,0,1.5,0,2.2,0c0.1,0,0.1,0,0.2,0v7.2c-0.8,0-1.6,0.1-2.4,0.1S68,100.6,67.2,100.5z
		 M99.6,82.9v3.8c0,1.9-0.9,3.7-2.4,5.3v-6.7c0.1-0.1,0.1-0.1,0.2-0.2c0.1-0.1,0.1-0.1,0.2-0.2c0.3-0.3,0.6-0.5,0.9-0.8
		c0.1-0.1,0.1-0.1,0.2-0.2C99,83.7,99.3,83.4,99.6,82.9C99.6,83,99.6,83,99.6,82.9z"/>
	<path fill="#02B875" d="M53.5,56.6l8.9-3.2l0-0.1c-2.4-1-3.4-2.6-3.8-4c-0.6-0.2-1-0.6-1.3-1.1c-0.3-0.5-0.4-1.1-0.2-1.7l0.2-0.7
		c0.2-0.8,0.9-1.4,1.9-1.8c0.3-0.6,0.7-1.2,1.2-1.7c0.2-0.2,0.4-0.4,0.5-0.5c0,0,0,0,0.1-0.1c0,0,0,0,0-0.1
		c-0.1-0.3-0.1-0.6-0.1-0.8c0-0.7,0.6-1.3,1.4-1.3c0.3,0,0.6,0.1,0.9,0.3c0.1,0,0.3,0.2,0.7,0.3c0.9,0.3,2.1,0.5,3.4,0.4
		c0.2,0,0.4,0,0.6,0c3,0,7,0.4,8.8,3.4c1,0.4,1.7,1.1,1.9,1.9l0.2,0.7c0.2,0.6,0.1,1.2-0.2,1.7c-0.3,0.5-0.7,0.8-1.3,1.1
		c-0.4,1.4-1.4,3-3.8,4l0,0.1l9,3.4C90.9,54.4,96,50.4,96,46.6c0-5.3-10.3-10.8-27.6-10.8s-27.6,5.5-27.6,10.8
		C40.8,50.3,45.6,54.2,53.5,56.6z"/>
</g>
</svg>
