<?xml version="1.0" encoding="utf-8"?>
<!-- Generator: Adobe Illustrator 22.0.1, SVG Export Plug-In . SVG Version: 6.00 Build 0)  -->
<svg version="1.1" baseProfile="tiny" id="Capa_1" xmlns="http://www.w3.org/2000/svg" xmlns:xlink="http://www.w3.org/1999/xlink"
	 x="0px" y="0px" viewBox="0 0 134 134" xml:space="preserve">
<circle fill="none" stroke="#455A64" stroke-miterlimit="10" cx="66.7" cy="66.7" r="66.7"/>
<g>
	<path fill="#455A64" d="M67,43.2c-15.3,0-29.1,8.4-39.4,21.9c-0.8,1.1-0.8,2.7,0,3.8c10.2,13.6,24.1,22,39.4,22s29.1-8.4,39.4-21.9
		c0.8-1.1,0.8-2.7,0-3.8C96.1,51.5,82.3,43.2,67,43.2z M68.1,83.8C58,84.4,49.6,76.1,50.2,65.9c0.5-8.4,7.3-15.2,15.7-15.7
		c10.1-0.6,18.5,7.7,17.9,17.9C83.3,76.5,76.5,83.3,68.1,83.8z M67.6,76c-5.5,0.3-10-4.2-9.6-9.6c0.3-4.5,3.9-8.2,8.5-8.5
		c5.5-0.3,10,4.2,9.6,9.6C75.8,72.1,72.1,75.8,67.6,76z"/>
</g>
</svg>
