<?xml version="1.0" encoding="utf-8"?>
<!-- Generator: Adobe Illustrator 21.1.0, SVG Export Plug-In . SVG Version: 6.00 Build 0)  -->
<svg version="1.1" id="Capa_1" xmlns="http://www.w3.org/2000/svg" xmlns:xlink="http://www.w3.org/1999/xlink" x="0px" y="0px"
	 viewBox="0 0 38 21" style="enable-background:new 0 0 38 21;" xml:space="preserve">
<style type="text/css">
	.st0{fill:#02B875;}
</style>
<path id="Forma_1_copia_4" class="st0" d="M37.6,0.4c-0.5-0.5-1.3-0.5-1.9,0c0,0,0,0,0,0L19,17.7L2.3,0.4c-0.5-0.5-1.3-0.5-1.9,0
	c0,0,0,0,0,0c-0.5,0.5-0.5,1.4,0,2L18,20.6c0.2,0.3,0.6,0.4,0.9,0.4c0.4,0,0.7-0.2,0.9-0.4L37.5,2.3C38.1,1.8,38.1,0.9,37.6,0.4z"/>
</svg>
