<?xml version="1.0" encoding="utf-8"?>
<!-- Generator: Adobe Illustrator 22.0.1, SVG Export Plug-In . SVG Version: 6.00 Build 0)  -->
<svg version="1.1" baseProfile="tiny" id="Capa_1" xmlns="http://www.w3.org/2000/svg" xmlns:xlink="http://www.w3.org/1999/xlink"
	 x="0px" y="0px" viewBox="0 0 134 134" xml:space="preserve">
<path fill="#7A7A7A" d="M0,0"/>
<circle fill="none" stroke="#31AD74" stroke-miterlimit="10" cx="66.7" cy="66.7" r="66.7"/>
<path fill="#02B875" d="M93.7,110c-10.2,0-18.5-8.2-18.5-18.4s8.3-18.4,18.5-18.4s18.5,8.2,18.5,18.4C112.3,101.8,104,110,93.7,110z
	 M102.8,82.2l-13.1,13l-6-6l-3.9,3.9l9.9,9.8l17-16.8L102.8,82.2z M41.9,91v-5.7h31.5c-0.6,1.8-0.9,3.7-0.9,5.7H41.9z M41.9,62.1
	h43.5v5.7H41.9V62.1z M76.5,79.2H41.9v-5.7h41C80.4,74.9,78.2,76.9,76.5,79.2z M91.9,70.6V28.5H55.1v19.3H35.7v52.1h38.4
	c0.8,1.8,1.9,3.6,3.1,5.1H30.6V45.7l21.3-22.3H97v47.4c-1.1-0.2-2.2-0.3-3.3-0.3C93.1,70.5,92.5,70.5,91.9,70.6z M50,32.8l-9.4,9.9
	H50V32.8z"/>
</svg>
