<?xml version="1.0" encoding="utf-8"?>
<!-- Generator: Adobe Illustrator 22.0.1, SVG Export Plug-In . SVG Version: 6.00 Build 0)  -->
<svg version="1.1" id="Capa_1" xmlns="http://www.w3.org/2000/svg" xmlns:xlink="http://www.w3.org/1999/xlink" x="0px" y="0px"
	 viewBox="0 0 157.2 157.1" style="enable-background:new 0 0 157.2 157.1;" xml:space="preserve">
<style type="text/css">
	.st0{fill:none;enable-background:new    ;}
	.st1{fill:#FFFFFF;}
</style>
<path class="st0" d="M-2.5-0.8"/>
<g>
	<g>
		<path class="st1" d="M32.1,59.2c-6.4,0-11.7,9.1-11.7,20.4S25.6,100,32.1,100c6.4,0,11.7-9.1,11.7-20.4
			C43.7,68.3,38.5,59.2,32.1,59.2z"/>
		<path class="st1" d="M134.2,23C119.4,8.2,99.6,0,78.6,0S37.9,8.2,23,23C8.2,37.8,0,57.6,0,78.6s8.2,40.7,23,55.5s34.6,23,55.6,23
			s40.7-8.2,55.6-23c14.8-14.8,23-34.6,23-55.5C157.2,57.6,149,37.8,134.2,23z M32.1,109.6c-13.8,0-25-13.4-25-30s11.2-30,25-30
			s25,13.4,25,30S45.9,109.6,32.1,109.6z M87.4,91.6H66.2c-4-0.1-5.8-2.3-5.9-5.9V47.3c-0.2-3,1-5.9,4.5-5.9H70
			c3.5,0,4.6,2.6,4.6,5.7v27.3c0.1,3.4,0.9,4,4.4,4h8.7c2.1,0,5.3-0.1,5.3,3v6.8C92.6,90.9,90.7,91.7,87.4,91.6z M141.1,110.6
			l-9.1,2.5c-3,0.8-6.3-0.9-7.5-3.7l-10.3-18.9l-12.7,18.7c-1.7,2.5-4.5,2.5-6.1-0.1l-3.8-6c-1.6-2.6-1.3-6.6,0.7-8.9l15.1-17.1
			L96.9,55.8c-1.2-2.8,0.2-5.9,3.1-6.8c2.9-0.9,6.6,0.4,8.3,3l9,13.5l13.1-15c2-2.3,5.2-3.2,7.4-2.3s2.9,3.5,1.1,6l-14.7,21.6
			l19.1,28.7C145.1,107.1,144,109.8,141.1,110.6z"/>
	</g>
</g>
</svg>
