<?xml version="1.0" encoding="utf-8"?>
<!-- Generator: Adobe Illustrator 22.0.1, SVG Export Plug-In . SVG Version: 6.00 Build 0)  -->
<svg version="1.1" baseProfile="tiny" id="Capa_1" xmlns="http://www.w3.org/2000/svg" xmlns:xlink="http://www.w3.org/1999/xlink"
	 x="0px" y="0px" viewBox="0 0 134 134" xml:space="preserve">
<circle fill="none" stroke="#455A64" stroke-miterlimit="10" cx="66.7" cy="66.7" r="66.7"/>
<path fill="#455A64" d="M88.3,78.6c-3.2,0-6.3,1.3-8.6,3.6c-0.6,0.6-1.2,1.3-1.7,2.1L57,71.4c0.6-1.4,0.9-2.9,0.9-4.5
	c0-1.6-0.3-3.1-0.9-4.5l21-12.7c2.2,3.4,5.9,5.7,10.3,5.7c6.7,0,12.2-5.5,12.2-12.2S95,31.1,88.3,31.1s-12.2,5.5-12.2,12.2
	c0,1.5,0.3,3,0.8,4.3L55.9,60.3c-2.2-3.3-5.9-5.5-10.2-5.5c-6.7,0-12.2,5.5-12.2,12.2S39,79.1,45.7,79.1c4.3,0,8-2.2,10.2-5.5
	l21.1,12.8c-0.5,1.4-0.8,2.8-0.8,4.3c0,3.2,1.3,6.3,3.6,8.6c2.3,2.3,5.4,3.6,8.6,3.6c3.2,0,6.3-1.3,8.6-3.6c2.3-2.3,3.6-5.4,3.6-8.6
	c0-3.2-1.3-6.3-3.6-8.6C94.6,79.8,91.5,78.6,88.3,78.6z"/>
</svg>
